<?xml version="1.0" encoding="UTF-8"?>
<svg id="Layer_2" data-name="Layer 2" xmlns="http://www.w3.org/2000/svg" viewBox="0 0 4482.76 690.16">
  <defs>
    <style>
      .cls-1 {
        fill: #fff;
      }

      .cls-2 {
        fill: #e2c044;
      }
    </style>
  </defs>
  <g id="Layer_1-2" data-name="Layer 1">
    <g>
      <g>
        <path class="cls-1" d="M1106.74,562.66c5.65-3.83,15.86-6.56,30.62-8.19,11.48-.54,18.32-1.54,20.51-3,1.46-1.09,2.55-2.45,3.28-4.08,2.73-6.71,4.74-24.96,6.02-54.73,1.67-38.83,4.37-90.5,8.08-155.04,2.97-49.21,4.46-79.93,4.46-92.14v-7.11c-13.18-2.73-34.03-5.66-62.57-8.76-1.83-2.73-2.74-4.83-2.74-6.29,0-.91.64-2.55,1.91-4.92,3.09-1.09,5.46-1.64,7.1-1.64,1.45,0,4.64.37,9.55,1.09,8.91,1.28,21.19,1.91,36.83,1.91,5.09,0,13.83-.42,26.19-1.25,8.73-.62,13.64-.94,14.74-.94,2.91,0,6.28.55,10.1,1.64,1.87,1.85,3.28,3.61,4.22,5.27l11.45,25.7,77.4,171.17,32.27,71.85c25.24-50.13,44.86-94.7,58.84-133.71.91-2.91,2-5.56,3.27-7.93,1.63-3.1,3.17-6.56,4.63-10.39,1.45-3.83,7.36-18.41,17.71-43.75,4.18-10.21,7.54-18.96,10.08-26.25,10.35-29.16,16.43-45.84,18.25-50.04,3.47-1.46,6.49-2.19,9.05-2.19,2.92,0,6.67.27,11.24.82,10.24.55,26.87.82,49.9.82,14.25,0,25.95-.18,35.09-.55.36,2.01.55,3.46.55,4.38,0,1.28-.27,3.01-.82,5.2-5.84,3.1-12.85,4.83-21.05,5.2-16.23.91-26.52,2.19-30.9,3.83s-7.16,3.74-8.34,6.29c-1.19,2.55-2.23,10.94-3.14,25.16l.27,12.58-.27,13.12c0,27.34.73,73.28,2.19,137.81l-.27,53.59.27,34.45c0,13.49.64,21.46,1.91,23.93,1.27,2.46,4.92,4.79,10.94,6.97,9.84,3.28,25.88,6.66,48.12,10.12,1.27.91,1.91,2.1,1.91,3.55,0,1.64-.09,3.46-.27,5.47h-12.6c-10.77,0-22.46-.32-35.06-.96-12.6-.64-19.35-.96-20.27-.96-37.44,0-62.27.41-74.5,1.25-7.49.62-12.23.94-14.24.94-1.28,0-2.65-.37-4.11-1.09v-3.55c0-1.64.27-3.37.82-5.2,6.02-2.55,14.22-4.29,24.61-5.2,11.48-3.1,19.87-6.38,25.16-9.85,1.64-6.93,2.46-21.08,2.46-42.43l-.82-55.29c0-6.02.32-17.24.96-33.66.64-16.42.96-43.15.96-80.19,0-29.38-.73-51.64-2.19-66.78-3.08,6.38-9.17,20.23-18.24,41.56l-4.08,10.39-.55,1.64-40.3,95.7-14.43,36.91-18.79,44.84c-8.17,20.6-15.16,38.83-20.96,54.69-2.54,7.29-4.63,13.04-6.26,17.23l-6.38-.27c-20.62-60.16-45.22-121.86-73.78-185.12-28.56-63.25-48.59-105-60.09-125.23-1.5,7.84-3.19,30.62-5.07,68.36-2.44,45.94-3.66,96.52-3.66,151.76,0,17.26,1.27,36.7,3.83,58.31.73,6.18,3.37,10.76,7.93,13.76,4.55,3,16.31,4.68,35.27,5.04,7.29,0,14.22.55,20.78,1.64,1.27,2.81,1.91,4.86,1.91,6.17,0,.94-.46,2.53-1.36,4.77l-84.9-3.01c-6.19,0-15.83.41-28.94,1.21-7.28.49-17.74.81-31.39.97l-.27-7.38Z"/>
        <path class="cls-1" d="M1639.34,565.05c1.82-1.6,3.37-2.58,4.65-2.93,3.1-.91,8.38-1.65,15.86-2.19,17.68-1.09,28.62-2.73,32.81-4.93,2.55-3.65,3.83-8.76,3.83-15.34l-.27-19.17.27-69.57-.55-32.87.27-68.75-1.37-78.06c-.18-18.62-1.37-29.12-3.55-31.5-3.28-3.47-13.04-5.48-29.26-6.02-6.93-.18-13.04-.73-18.32-1.64-2.37-1.27-3.55-2.91-3.55-4.92,0-1.46.45-3.19,1.37-5.2,1.64-.91,3.1-1.37,4.38-1.37,2.55,0,5.65.09,9.3.27,10.75,1.09,21.88,1.64,33.36,1.64l20.23-.55,48.12,1.09c24.06,0,42.84-.27,56.33-.82,13.49-.55,22.6-.82,27.34-.82,4.19,0,14.58.37,31.17,1.09l38.83-.27,4.65.82,22.7-.82,2.73,1.37c.91,1.46,1.55,3.01,1.91,4.65,0,2.55-.41,6.47-1.23,11.76-.82,5.29-1.23,8.57-1.23,9.84,0,18.96.64,35,1.91,48.12-.18,1.09-.72,1.82-1.61,2.19-1.97,0-3.76-.27-5.36-.82-2.01-3.46-4.7-9.57-8.07-18.32-3.38-8.75-8.44-18.87-15.19-30.35-4.56-7.66-8.12-12.21-10.67-13.67-2.55-1.46-7.84-2.19-15.87-2.19-1.64,0-9.95-.18-24.9-.55-4.02-.18-7.94-.27-11.77-.27l-77.99,1.64h-6.84c-10.04,0-16.06,1.28-18.06,3.83-3.1,4.38-4.65,17.23-4.65,38.55,0,2.19.45,24.06,1.37,65.62v38.01c2,.55,4.19.82,6.56.82h4.65c3.1,0,7.66.09,13.67.27,9.48.37,15.86.55,19.14.55,2.19,0,4.1-.09,5.74-.27,19.69-.73,45.02-1.09,76.02-1.09,9.66-1.64,15.31-3.55,16.95-5.74,2.73-3.28,4.79-11.85,6.15-25.7,1.37-13.85,4.42-21.69,9.16-23.52,2.37,0,4.55.46,6.56,1.37.36,1.46.55,2.83.55,4.1s-.18,3.38-.55,6.29c-.91,6.75-1.37,27.89-1.37,63.44,0,9.48.5,20.05,1.5,31.72,1,11.67,1.5,17.96,1.5,18.87,0,1.64-.27,3.83-.82,6.56-1.46.73-2.64,1.09-3.55,1.09h-1.91c-2.92-5.1-5.74-13.03-8.48-23.79-4.74-18.41-9.71-29.94-14.9-34.59s-13.63-6.97-25.29-6.97c-2.55,0-7.2.14-13.95.41-6.75.27-16.77.41-30.08.41h-17.77c-25.34,0-41.93.55-49.77,1.64l-.27,9.04.27,50.4-.27,31.77.27,30.95c.18,18.63,1.37,29.4,3.55,32.32,3.1,4.02,9.84,6.03,20.23,6.03l16.68-.27c1.46,0,7.15.14,17.09.41,9.93.27,22.19.41,36.78.41,35.18,0,58.61-1.51,70.27-4.52,11.66-3.02,21.28-8.37,28.85-16.05,7.56-7.68,17.09-24.23,28.57-49.66,3.46-7.5,6.93-11.25,10.39-11.25,1.64,0,3.46.73,5.47,2.19-5.29,18.05-8.3,29.9-9.02,35.55-2.01,12.76-3.19,25.8-3.55,39.1,0,6.02-1.46,11.03-4.38,15.04h-6.02l-76.84.82-34.45-.27-82.03,1.09h-33.36c-4.2,0-8.11.09-11.76.27-32.81,1.46-56.97,2.19-72.46,2.19-2.73,0-4.61-.44-5.61-1.33-1-.89-1.5-2.23-1.5-4l.27-2.67Z"/>
        <path class="cls-1" d="M2053,562.66c5.65-3.83,15.86-6.56,30.62-8.19,11.48-.54,18.32-1.54,20.51-3,1.46-1.09,2.55-2.45,3.28-4.08,2.73-6.71,4.74-24.96,6.02-54.73,1.67-38.83,4.37-90.5,8.08-155.04,2.97-49.21,4.46-79.93,4.46-92.14v-7.11c-13.18-2.73-34.03-5.66-62.57-8.76-1.83-2.73-2.74-4.83-2.74-6.29,0-.91.64-2.55,1.91-4.92,3.09-1.09,5.46-1.64,7.1-1.64,1.45,0,4.64.37,9.55,1.09,8.91,1.28,21.19,1.91,36.83,1.91,5.09,0,13.83-.42,26.19-1.25,8.73-.62,13.64-.94,14.74-.94,2.91,0,6.28.55,10.1,1.64,1.87,1.85,3.28,3.61,4.22,5.27l11.45,25.7,77.4,171.17,32.27,71.85c25.24-50.13,44.86-94.7,58.84-133.71.91-2.91,2-5.56,3.27-7.93,1.63-3.1,3.17-6.56,4.63-10.39,1.45-3.83,7.36-18.41,17.71-43.75,4.18-10.21,7.54-18.96,10.08-26.25,10.35-29.16,16.43-45.84,18.25-50.04,3.47-1.46,6.49-2.19,9.05-2.19,2.92,0,6.67.27,11.24.82,10.24.55,26.87.82,49.9.82,14.25,0,25.95-.18,35.09-.55.36,2.01.55,3.46.55,4.38,0,1.28-.27,3.01-.82,5.2-5.84,3.1-12.85,4.83-21.05,5.2-16.23.91-26.52,2.19-30.9,3.83s-7.16,3.74-8.34,6.29c-1.19,2.55-2.23,10.94-3.14,25.16l.27,12.58-.27,13.12c0,27.34.73,73.28,2.19,137.81l-.27,53.59.27,34.45c0,13.49.64,21.46,1.91,23.93,1.27,2.46,4.92,4.79,10.94,6.97,9.84,3.28,25.88,6.66,48.12,10.12,1.27.91,1.91,2.1,1.91,3.55,0,1.64-.09,3.46-.27,5.47h-12.6c-10.77,0-22.46-.32-35.06-.96-12.6-.64-19.35-.96-20.27-.96-37.44,0-62.27.41-74.5,1.25-7.49.62-12.23.94-14.24.94-1.28,0-2.65-.37-4.11-1.09v-3.55c0-1.64.27-3.37.82-5.2,6.02-2.55,14.22-4.29,24.61-5.2,11.48-3.1,19.87-6.38,25.16-9.85,1.64-6.93,2.46-21.08,2.46-42.43l-.82-55.29c0-6.02.32-17.24.96-33.66.64-16.42.96-43.15.96-80.19,0-29.38-.73-51.64-2.19-66.78-3.08,6.38-9.17,20.23-18.24,41.56l-4.08,10.39-.55,1.64-40.3,95.7-14.43,36.91-18.79,44.84c-8.17,20.6-15.16,38.83-20.96,54.69-2.54,7.29-4.63,13.04-6.26,17.23l-6.38-.27c-20.62-60.16-45.22-121.86-73.78-185.12-28.56-63.25-48.59-105-60.09-125.23-1.5,7.84-3.19,30.62-5.07,68.36-2.44,45.94-3.66,96.52-3.66,151.76,0,17.26,1.27,36.7,3.83,58.31.73,6.18,3.37,10.76,7.93,13.76,4.55,3,16.31,4.68,35.27,5.04,7.29,0,14.22.55,20.78,1.64,1.27,2.81,1.91,4.86,1.91,6.17,0,.94-.46,2.53-1.36,4.77l-84.9-3.01c-6.19,0-15.83.41-28.94,1.21-7.28.49-17.74.81-31.39.97l-.27-7.38Z"/>
        <path class="cls-1" d="M2597.63,394.5c0-18.59,2.23-35.14,6.7-49.63,4.46-14.49,11.98-30.21,22.56-47.17,10.57-16.95,23.33-31.12,38.28-42.52,14.95-11.39,35.64-21.46,62.07-30.21,18.59-6.02,42.11-9.02,70.55-9.02,19.14,0,37.87,2.55,56.19,7.66,18.32,5.11,34.95,12.21,49.9,21.33,14.95,9.12,29.89,23.15,44.84,42.11,10.39,13.12,18.23,27.25,23.52,42.38,6.93,19.87,10.39,40.38,10.39,61.52,0,24.06-2.32,44.02-6.97,59.88s-12.44,31.54-23.38,47.03c-8.57,12.03-23.24,25.89-44.02,41.56-13.86,10.57-31.08,19.1-51.68,25.57-20.6,6.47-42.84,9.71-66.72,9.71s-45.85-2.83-64.8-8.48c-18.96-5.65-34.77-12.53-47.44-20.64-12.67-8.11-25.7-20.1-39.1-35.96s-23.56-33.36-30.49-52.5c-6.93-19.14-10.39-40.01-10.39-62.62ZM2787.39,564.58c15.31,0,31.21-2.14,47.71-6.43,16.5-4.28,31.12-11.39,43.89-21.33,12.76-9.93,22.74-21.23,29.94-33.91,7.2-12.67,12.99-28.94,17.36-48.81,4.38-19.87,6.56-39.74,6.56-59.61,0-24.79-3.65-49.31-10.94-73.55-5.65-18.41-14.86-34.86-27.62-49.36-12.76-14.49-28.16-25.7-46.21-33.63s-37.28-11.89-57.7-11.89c-16.59,0-32.81,2.73-48.67,8.2s-28.89,12.44-39.1,20.92c-10.21,8.48-19.69,20.51-28.44,36.09s-15.41,32.77-19.96,51.54c-4.56,18.78-6.84,35.37-6.84,49.77,0,15.13,2.28,32.27,6.84,51.41,4.55,19.14,10.8,35.73,18.73,49.77,7.93,14.04,17.68,26.48,29.26,37.32,11.57,10.85,24.56,19.14,38.96,24.88,14.4,5.74,29.8,8.61,46.21,8.61Z"/>
        <path class="cls-1" d="M3080.99,560.75c26.49-3.09,41.46-5.28,44.9-6.56,2.36-.91,4.53-3.64,6.53-8.19v-3.01c0-4.55.73-21.03,2.18-49.45.36-8.02.54-15.85.54-23.49l-.82-32.51.55-36.88-.27-68.58.27-49.18c.18-20.76-1.41-33.42-4.79-37.98-3.38-4.55-12.08-7.79-26.11-9.7-14.04-1.91-21.79-3.32-23.24-4.23-1.46-.91-2.19-2.37-2.19-4.38,0-1.27.27-2.91.82-4.92,1.82-1.64,6.02-2.55,12.58-2.73.91,0,3.42-.23,7.52-.68,4.1-.45,7.97-.68,11.62-.68h22.42l71.91-.82c40.65,0,69.13,3.01,85.45,9.02,16.31,6.02,29.3,16.18,38.96,30.49,9.66,14.31,14.49,30.31,14.49,47.99,0,33.54-17.57,59.16-52.71,76.84-6.01,3.1-10.74,5.84-14.2,8.2,6.19,13.11,14.83,28.86,25.93,47.25l34.67,59.55c13.86,21.92,23.43,35.66,28.71,41.22,5.29,5.57,11.72,10.18,19.28,13.83,7.57,3.65,20.29,7.12,38.16,10.41.18,1.82.27,3.28.27,4.38s-.09,2.46-.27,4.1c-24.98.36-54.23.55-87.77.55-2.37,0-5.65-.18-9.84-.55-12.95-24.83-28.16-52.12-45.66-81.89l-40.47-73.95c-5.47-7.67-9.98-12.45-13.54-14.37s-8.25-2.88-14.08-2.88l-23.24.26-7.66-.26c-.55,5.84-.82,17.77-.82,35.82v93.51c-.18,3.46.55,8.3,2.19,14.49,1.46,3.46,3.96,6.25,7.52,8.34,3.55,2.1,13.81,5.24,30.76,9.43l11.21,2.73c1.46,1.82,2.19,4.29,2.19,7.38-4.92.91-8.38,1.37-10.38,1.37-16.38,0-27.93-.18-34.66-.55-3.46-.18-6.28-.27-8.46-.27l-37.12.55-36.3-.27c-1.64,0-9.92.27-24.84.82l-5.46-1.09-.55-2.73c0-1.64,1.27-3.55,3.81-5.74ZM3182.46,381.92c4.92.18,8.57.27,10.94.27,13.12,0,28.25-1.55,45.39-4.64,12.03-2.36,21.78-6.23,29.26-11.6,7.47-5.37,13.71-13.33,18.73-23.88,5.01-10.55,7.52-21.47,7.52-32.75,0-12.37-3.92-25.47-11.76-39.3-6.02-10.55-16.18-19.38-30.49-26.47-14.31-7.1-31.49-10.65-51.54-10.65-4.92,0-11.3.27-19.14.82-.73,9.46-1.09,16.74-1.09,21.83l1.37,51.04-.27,21.02c0,14.19.36,32.3,1.09,54.32Z"/>
        <path class="cls-1" d="M3483.18,560.48c4.01-1.64,8.11-2.64,12.3-3.01,27.89-1.82,43.84-5.15,47.85-9.99,4.01-4.83,6.02-28.23,6.02-70.2l-.27-28.73v-30.1l-1.09-33.11.55-19.43-.27-21.35v-25.18l-.55-11.22.55-14.23c.18-3.28.27-7.11.27-11.49,0-11.49-.55-23.63-1.64-36.4-.73-2.55-1.73-5.02-3.01-7.39-6.75-3.47-17.64-5.79-32.68-6.98s-23.56-2.51-25.57-3.97c-1.46-1.09-2.28-3.92-2.46-8.48h23.01l72.58,1.64c18.62,0,43.45-.55,74.49-1.64,0,2.92-.18,5.65-.55,8.2-3.65.91-9.75,1.91-18.32,3.01-17.32,2.01-27.89,3.93-31.72,5.75-2.37.91-4.1,2.47-5.2,4.65-1.82,3.29-2.92,9.4-3.28,18.34l-1.37,35.3,1.09,121.78v48.16c-.37,15.15-.55,25.46-.55,30.92,0,20.44.5,33.48,1.5,39.14,1,5.66,2.73,9.72,5.2,12.18,2.46,2.46,6.52,4.43,12.17,5.88,8.38,2.01,14.95,3.11,19.69,3.29,10.21.37,16.68,1.82,19.41,4.38.55,2.37.82,4.38.82,6.02v2.19c-16.62.55-28.85.82-36.7.82-4.56,0-12.69-.27-24.38-.82l-37.79.55-64.36-.27h-5.2l-.55-8.2Z"/>
        <path class="cls-1" d="M3722.66,560.48c2.55-1.46,4.83-2.19,6.83-2.19h6.29c1.27,0,3.46-.09,6.56-.27,14.03-1.27,22.32-2.55,24.87-3.83,6.38-3.46,11.84-9.48,16.4-18.05,9.48-18.59,20.15-44.93,32-79.02,5.65-16.22,9.21-26.07,10.67-29.53,4.55-10.94,8.93-22.42,13.13-34.45l25.71-71.91c4.01-11.3,13.68-37.19,28.99-77.66,3.83-10.21,8.48-23.88,13.95-41.02l8.05-.55,9.56.27c7.83,15.5,14.75,32.18,20.76,50.04,3.28,9.48,8.65,23.61,16.12,42.38l41.51,112.38,22.12,60.98c11.66,34.64,19.32,55.92,22.97,63.85,3.64,7.93,7.02,13.17,10.12,15.72.91.73,4.33,1.82,10.25,3.28,5.92,1.46,10.07,2.55,12.44,3.28,8.38,2.37,14.22,4.38,17.5,6.02.73,2.01,1.09,3.55,1.09,4.65,0,.91-.27,2.28-.82,4.1-5.84.18-9.94.27-12.3.27-9.3,0-25.7-.27-49.22-.82l-27.34-.62-33.09.41c-2.19,0-4.42-.1-6.7-.31-2.28-.21-4.24-.31-5.88-.31h-6.02c-2.01-.18-3.83-.73-5.47-1.64,0-2.55.45-5.01,1.37-7.38,2.19-1.09,4.19-1.73,6.02-1.91l28.7-1.92c7.47-.36,13.12-1.37,16.95-3.01,1.09-3.29,1.64-5.75,1.64-7.4,0-3.29-2.37-11.78-7.11-25.48-3.28-9.13-6.14-17.8-8.6-26.02-2.46-8.22-12.16-35.24-29.08-81.09-7.48-1.28-14.04-1.92-19.69-1.92l-58.52.55-17.23-.27c-6.2,0-13.04.46-20.51,1.37-2.38,5.47-3.93,9.39-4.65,11.76l-24.1,75.2c-10.21,28.62-15.31,44.39-15.31,47.3,0,1.64.82,4.38,2.46,8.2,3.83,1.09,8.93,2.1,15.31,3.01l37.19,3.28c2,1.64,3.01,3.1,3.01,4.38,0,.91-.27,2.28-.82,4.1-8.2.18-14.49.27-18.87.27-14.59,0-31.54-.45-50.86-1.37-8.93-.36-15.31-.55-19.14-.55s-10.48.18-19.96.55c-6.2.37-10.66.55-13.4.55-4.38,0-10.03-.27-16.95-.82v-1.64c0-1.27.37-3.01,1.09-5.2ZM3853.14,396.41c19.5,1.09,41.74,1.64,66.72,1.64,14.22,0,26.7-.45,37.46-1.37-1.82-7.11-3.92-13.76-6.29-19.95-11.83-31.71-18.38-49.2-19.66-52.48l-24.85-63.14-2.73-4.92c-1.1,2.19-5.11,11.57-12.05,28.15-11.69,28.43-20.08,50.57-25.19,66.42-2.38,7.11-4.84,14.17-7.4,21.18-2.55,7.01-4.15,11.94-4.79,14.76-.64,2.83-1.6,5.7-2.88,8.61l1.64,1.09Z"/>
        <path class="cls-1" d="M4163.93,570.87c.18-2.73.91-5.2,2.19-7.38,14.22-3.83,28.07-6.38,41.56-7.66,8.93-.73,14.67-2.74,17.23-6.02,1.82-2.37,2.91-11.13,3.28-26.27l1.91-72.24-.27-48.99.27-64.04v-16.97c.18-38.5,0-62.49-.55-71.97-.18-1.82-.92-4.38-2.2-7.66-4.76-2.19-8.75-3.64-11.95-4.38-3.21-.73-17.54-3.38-42.99-7.94-.18-2-.27-3.46-.27-4.38,0-1.09.09-2.55.27-4.38,3.47,0,9.13.21,16.98.62l41.63,1.56,24.11.55,7.12-.27c.91,0,3.56.18,7.94.55,10.78,0,16.98-.09,18.62-.27l21.91-1.64c14.79,0,25.19.27,31.22.82-.18,3.28-.82,6.84-1.91,10.66-2.01.37-11.48.87-28.44,1.5-16.95.64-26.71,1.69-29.26,3.14-4.2,2.37-6.29,9.66-6.29,21.88,0,2.92-.18,8.84-.55,17.77v16.41l.27,50.59v17.23l.55,90.51-.82,77.11.27,16.95c0,5.47.91,8.84,2.73,10.12,4.55.18,17.95.37,40.2.55h18.59l47.3-1.64c12.39-.36,21.23-1.59,26.52-3.69,5.29-2.09,14.12-8.25,26.52-18.46,7.47-6.56,13.3-13.3,17.5-20.23.91-1.46,2.46-3.64,4.65-6.56,3.46-4.74,8.11-14.22,13.95-28.44h9.02c-1.09,6.56-2.28,12.76-3.55,18.59-5.29,25.7-8.93,47.12-10.94,64.26-.37,3.65-.73,7.02-1.09,10.12l-102.27-3.01c-87.87,0-140,.82-156.41,2.46-5.11.36-10.48.55-16.13.55h-28.44Z"/>
      </g>
      <g>
        <g>
          <polygon class="cls-2" points="687.82 605.26 687.82 611.28 797.41 611.28 797.41 605.26 687.82 605.26 687.82 605.26"/>
          <polygon class="cls-2" points="806.37 218.59 678.87 218.59 678.87 227.87 806.37 227.87 806.37 218.59 806.37 218.59"/>
          <polygon class="cls-2" points="806.82 650.59 806.82 635.08 678.41 635.08 678.41 650.59 806.82 650.59 806.82 650.59"/>
          <polygon class="cls-2" points="680.19 631.17 805.05 631.17 805.05 627.07 680.19 627.07 680.19 631.17 680.19 631.17"/>
          <polygon class="cls-2" points="687.82 623.67 797.41 623.67 797.41 621.16 687.82 621.16 687.82 623.67 687.82 623.67"/>
          <polygon class="cls-2" points="687.82 618.41 797.41 618.41 797.41 615.9 687.82 615.9 687.82 618.41 687.82 618.41"/>
          <path class="cls-2" d="M794.48,230.98h-103.73v.06c0,6.33,23.21,11.46,51.87,11.46s51.87-5.13,51.87-11.46v-.06h0Z"/>
          <path class="cls-2" d="M711.96,273.09h6.47v332.26h-6.47v-332.26h0ZM730.24,273.09h6.47v332.26h-6.47v-332.26h0ZM748.52,273.09h6.47v332.26h-6.47v-332.26h0ZM766.8,273.09h6.47v332.26h-6.47v-332.26h0ZM704.64,265.21l-.48.77c-.04.08-.12.21-.36.55l-.6.79c-.29.4-.71.89-1.21,1.4-.48.51-.91.93-1.37,1.3-.7.6-1.45,1.14-2.24,1.65v333.69h-6.11v3.9h100.69v-3.9h-6.11v-333.69c-.78-.51-1.54-1.05-2.24-1.65-.45-.37-.89-.79-1.37-1.3-.5-.51-.93-1-1.29-1.51l-.44-.57c-.3-.4-.4-.57-.44-.65l-.48-.78-.4-.75c-1.11-2.19-1.68-4.35-1.79-6.68-.22-4.55,1.73-8.97,5.21-11.84.48-.41.99-.8,1.53-1.14-.2.01-2.78.23-2.78.23-.81.12-1.67.23-2.57.3-.83.05-1.66.13-2.58.2-1.84.15-4.14.34-6.7.46l-7.86.37c-1.66.08-3.37.17-5.13.19l-2.42.06c-1.59.04-3.21.08-4.85.1l-7.47.06-7.55-.05c-1.72,0-3.45-.05-5.15-.09l-2.16-.05c-3.13-.06-6.16-.22-8.84-.36-1.43-.07-2.8-.15-4.1-.2-2.52-.1-4.67-.32-6.39-.5-.89-.09-1.7-.17-2.43-.22-.2,0-.41-.02-.61-.03,0,0-5.3-.44-5.46-.46.54.35,1.05.73,1.53,1.14,3.48,2.87,5.43,7.29,5.21,11.84-.11,2.32-.69,4.49-1.76,6.61l-.43.82h0Z"/>
        </g>
        <g>
          <polygon class="cls-2" points="9.41 605.26 9.41 611.28 119 611.28 119 605.26 9.41 605.26 9.41 605.26"/>
          <polygon class="cls-2" points="127.96 218.59 .45 218.59 .45 227.87 127.96 227.87 127.96 218.59 127.96 218.59"/>
          <polygon class="cls-2" points="128.41 650.59 128.41 635.08 0 635.08 0 650.59 128.41 650.59 128.41 650.59"/>
          <polygon class="cls-2" points="1.78 631.17 126.63 631.17 126.63 627.07 1.78 627.07 1.78 631.17 1.78 631.17"/>
          <polygon class="cls-2" points="9.41 623.67 119 623.67 119 621.16 9.41 621.16 9.41 623.67 9.41 623.67"/>
          <polygon class="cls-2" points="9.41 618.41 119 618.41 119 615.9 9.41 615.9 9.41 618.41 9.41 618.41"/>
          <path class="cls-2" d="M116.07,230.98H12.34v.06c0,6.33,23.21,11.46,51.87,11.46s51.87-5.13,51.87-11.46v-.06h0Z"/>
          <path class="cls-2" d="M33.55,273.09h6.47v332.26h-6.47v-332.26h0ZM51.83,273.09h6.47v332.26h-6.47v-332.26h0ZM70.11,273.09h6.47v332.26h-6.47v-332.26h0ZM88.39,273.09h6.47v332.26h-6.47v-332.26h0ZM26.23,265.21l-.48.77c-.04.08-.12.21-.36.55l-.6.79c-.29.4-.71.89-1.21,1.4-.48.51-.91.93-1.37,1.3-.7.6-1.45,1.14-2.24,1.65v333.69h-6.11v3.9h100.69v-3.9h-6.11v-333.69c-.78-.51-1.54-1.05-2.24-1.65-.45-.37-.89-.79-1.37-1.3-.5-.51-.93-1-1.29-1.51l-.44-.57c-.3-.4-.4-.57-.44-.65l-.48-.78-.4-.75c-1.11-2.19-1.68-4.35-1.79-6.68-.22-4.55,1.73-8.97,5.21-11.84.48-.41.99-.8,1.53-1.14-.2.01-2.78.23-2.78.23-.81.12-1.67.23-2.57.3-.83.05-1.66.13-2.58.2-1.84.15-4.14.34-6.7.46l-7.86.37c-1.66.08-3.37.17-5.13.19l-2.42.06c-1.59.04-3.21.08-4.85.1l-7.47.06-7.55-.05c-1.72,0-3.45-.05-5.15-.09l-2.16-.05c-3.13-.06-6.16-.22-8.84-.36-1.43-.07-2.8-.15-4.1-.2-2.52-.1-4.67-.32-6.39-.5-.89-.09-1.7-.17-2.43-.22-.2,0-.41-.02-.61-.03,0,0-5.3-.44-5.46-.46.54.35,1.05.73,1.53,1.14,3.48,2.87,5.43,7.29,5.21,11.84-.11,2.32-.69,4.49-1.76,6.61l-.43.82h0Z"/>
        </g>
        <rect class="cls-2" y="670.16" width="806.82" height="20"/>
        <rect class="cls-2" y="188.61" width="806.82" height="18"/>
        <g>
          <polygon class="cls-2" points="806.82 158.63 806.82 176.62 0 176.62 0 159 .94 158.62 369.09 9.88 393.55 0 418.19 9.45 806.79 158.62 806.82 158.63"/>
          <polygon class="cls-2" points=".94 158.62 0 159 0 158.62 .94 158.62"/>
          <polygon class="cls-2" points="806.82 158.62 806.82 158.63 806.79 158.62 806.82 158.62"/>
        </g>
        <path class="cls-2" d="M607.46,318.46c.15,2.32.23,4.15.23,5.48l-.46,7.47c0,1.49-.08,3.73-.23,6.72-14.56,2.32-26.41,5.81-35.54,10.46-6.35,3.32-9.52,7.47-9.52,12.45v3.73l3.99,76.18c.47,6.97,1.72,41.57,3.76,103.81.47,13.94,1.48,31.62,3.05,53.03.31,2.66.47,4.73.47,6.22.15,3.98.96,6.56,2.44,7.72,1.37,1.08,13.48,5.32,36.33,12.71,3.31,1.07,5.59,4.16,5.6,7.66,0,.01,0,.03,0,.04,0,3.49-.08,6.97-.23,10.46-4.18,0-14.72-.95-31.59-2.86-16.88-1.91-32.68-2.86-47.39-2.86-22.46,0-44.29,1-65.51,2.99-2.79.33-5.5.58-8.13.75l.3-11.27c.1-3.67,2.46-6.91,5.94-8.03,5.42-1.75,11.94-3.29,19.54-4.6,7.43-1.33,12.16-3.57,14.17-6.72,2.01-3.15,3.02-11.95,3.02-26.39,0-5.48-.08-10.29-.23-14.44-.78-17.43-1.24-41.66-1.39-72.69l-3.95-87.88c-.46-12.45-1.01-21.08-1.63-25.89l-57.84,142.4c-1.39,3.32-3.48,8.13-6.27,14.44-3.57,8.13-5.96,13.69-7.2,16.68-11.93,30.7-20.21,54.19-24.86,70.45-1.24,4.15-3.1,9.54-5.58,16.18l-17.84-.25-12.55-38.09c-3.72-9.96-10.07-25.06-19.06-45.31-5.27-11.78-9.38-21.33-12.32-28.63-1.39-2.99-2.4-5.23-3.02-6.72l-2.79-6.22c-.16-1-.39-1.83-.7-2.49l-34.64-79.91-21.16-48.55-1.84,117.75-1.61,76.43c0,12.61,2.21,21.62,6.62,27.01,4.41,5.39,13.9,10,28.46,13.82l7.49,2.01c2.16.58,3.66,2.55,3.66,4.8v14.36c-8.98-.17-18.62-.87-28.92-2.12-10.3-1.24-23.97-1.87-41-1.87-3.57,0-18.82.75-45.76,2.24l.36-8.69c.08-1.88,1.46-3.45,3.32-3.79,17.55-3.17,28.99-11.66,33.96-17.15,3.4-3.98,6.04-14.36,7.9-31.12l3.02-88.63,3.48-90.12c.31-5.48.46-8.8.46-9.96,0-23.4-1.28-36.93-3.83-40.58-2.56-3.65-12.51-7.22-29.85-10.7-4.34-1-7.75-1.83-10.22-2.49-.31-4.15-.46-7.63-.46-10.46v-7.72c5.72-.5,12.45-.75,20.18-.75l67.95,2.49c1.55.17,3.71.33,6.5.5l10.67.5c2.63,3.38,5.31,7.79,8.04,13.22,5.67,12.14,13.23,29.91,22.66,53.32l2.67,6.66,36.09,84.47c.86,1.95,2.13,4.84,3.81,8.66,2.57,5.85,5.05,11.49,7.44,16.93s4.99,11.36,7.82,17.79c2.82,6.41,5.35,12.17,7.6,17.27,2.17-3.98,4.26-8.38,6.27-13.19,6.19-15.27,12.23-29.29,18.12-42.07,10.22-22.57,24.08-57.09,41.58-103.56,2.79-7.47,7.4-18.71,13.82-33.73,6.42-15.02,9.95-22.94,10.57-23.77,1.39-1.33,4.17-1.99,8.35-1.99,1.55,0,3.95-.08,7.19-.25,8.05-.5,17.71-.91,29.01-1.24,16.24-.17,29.28-.71,39.1-1.62l22.16-.87Z"/>
      </g>
    </g>
  </g>
</svg>